<svg xmlns="http://www.w3.org/2000/svg" viewBox="0 0 1280 640">
  <defs>
    <linearGradient id="bg" x1="0%" y1="0%" x2="100%" y2="100%">
      <stop offset="0%" style="stop-color:#1a1a2e"/>
      <stop offset="100%" style="stop-color:#16213e"/>
    </linearGradient>
    <linearGradient id="accent" x1="0%" y1="0%" x2="100%" y2="0%">
      <stop offset="0%" style="stop-color:#667eea"/>
      <stop offset="100%" style="stop-color:#764ba2"/>
    </linearGradient>
  </defs>
  <rect width="1280" height="640" fill="url(#bg)"/>
  <g transform="translate(640, 280)">
    <rect x="-70" y="-80" width="100" height="130" rx="4" fill="url(#accent)" opacity="0.9"/>
    <rect x="-60" y="-70" width="80" height="6" rx="2" fill="#fff" opacity="0.8"/>
    <rect x="-60" y="-55" width="60" height="4" rx="2" fill="#fff" opacity="0.5"/>
    <rect x="-60" y="-45" width="70" height="4" rx="2" fill="#fff" opacity="0.5"/>
    <rect x="-60" y="-35" width="50" height="4" rx="2" fill="#fff" opacity="0.5"/>
    <rect x="-60" y="-20" width="65" height="4" rx="2" fill="#fff" opacity="0.5"/>
    <rect x="-60" y="-10" width="55" height="4" rx="2" fill="#fff" opacity="0.5"/>
    <rect x="-60" y="5" width="70" height="4" rx="2" fill="#fff" opacity="0.5"/>
    <rect x="-60" y="15" width="45" height="4" rx="2" fill="#fff" opacity="0.5"/>
    <path d="M50,-60 L90,-60 L90,40 L50,40 Z" fill="none" stroke="url(#accent)" stroke-width="2" opacity="0.6"/>
    <path d="M60,-50 L80,-50 M60,-35 L80,-35 M60,-20 L80,-20" stroke="#667eea" stroke-width="2" opacity="0.5"/>
  </g>
  <text x="640" y="480" font-family="system-ui, -apple-system, sans-serif" font-size="48" font-weight="700" fill="#fff" text-anchor="middle">Sovereign AI Stack</text>
  <text x="640" y="530" font-family="system-ui, -apple-system, sans-serif" font-size="24" fill="#888" text-anchor="middle">The Complete Documentation</text>
</svg>
